<svg xmlns="http://www.w3.org/2000/svg" xmlns:xlink="http://www.w3.org/1999/xlink" viewBox="0 0 382 80" version="1.1" width="250px" height="53px">
    <!-- Generator: Sketch 52.6 (67491) - http://www.bohemiancoding.com/sketch -->
    <title>zillow</title>
    <desc>Created with Sketch.</desc>
    <g id="Page-1" stroke="none" stroke-width="1" fill="none" fill-rule="evenodd" fill-color-id="-1" stroke-color-id="-1" recolor-fill="true" recolor-stroke="true">
        <g id="zillow" fill="#1277E1FF" fill-rule="nonzero" fill-color-id="0" stroke-color-id="-1" recolor-fill="true" recolor-stroke="true">
            <path d="M238.439811,54.0384798 C238.439811,39.2841896 250.3414,28.3580395 264.896308,28.3580395 C279.313182,28.3580395 291.214772,39.2841896 291.214772,54.0384798 C291.214772,68.8326464 279.313182,79.777201 264.896308,79.777201 C250.3414,79.7587965 238.439811,68.8326464 238.439811,54.0384798 Z M148.576675,10.8123971 L148.576675,13.8031316 C148.576675,14.9196725 148.337416,15.2601561 148.119629,15.7172017 L119.945376,63.6885831 C119.887095,63.768336 119.923904,63.8879654 120.046601,63.8879654 L150.052104,63.8879654 L150.052104,78.1637381 L96.0195003,78.1637381 L96.0195003,75.3723859 C96.0195003,74.1362156 96.1790061,73.8785523 96.8569059,72.6423821 L124.712147,25.3274286 C124.770428,25.2292711 124.730551,25.1280463 124.610922,25.1280463 L96.8753104,25.1280463 L96.8753104,10.8123971 L148.576675,10.8123971 Z M322.177309,78.1453335 L307.745098,78.1453335 L292.052178,29.5942098 L307.564121,29.5942098 L312.051756,44.290219 C313.54559,49.1551471 316.057807,58.2868565 316.057807,58.2868565 C316.097683,58.4064858 316.257189,58.3850139 316.275593,58.2868565 C316.275593,58.2868565 318.867563,48.9741693 320.34606,44.290219 L325.051482,29.5942098 L336.496026,29.5942098 L341.121695,44.290219 C342.676877,49.314653 345.109341,58.2868565 345.109341,58.2868565 C345.14615,58.4064858 345.287252,58.4064858 345.3486,58.2868565 C345.3486,58.2868565 347.860817,49.2134281 349.354651,44.290219 L353.842286,29.5942098 L368.256093,29.5942098 L352.664397,78.1453335 L338.489849,78.1453335 L334.621832,65.9431368 C333.143336,61.1579616 330.532962,51.8667464 330.532962,51.8667464 C330.493085,51.747117 330.333579,51.747117 330.315175,51.8667464 C330.315175,51.8667464 327.701733,60.9769838 326.128146,65.8633839 L322.177309,78.1453335 Z M175.754016,78.1453335 L160.061095,78.1453335 L160.061095,29.5942098 L175.754016,29.5942098 L175.754016,78.1453335 Z M187.655605,3.93217406 L203.348526,3.93217406 L203.348526,78.1453335 L187.655605,78.1453335 L187.655605,3.93217406 Z M214.97098,3.93217406 L230.663901,3.93217406 L230.663901,78.1453335 L214.97098,78.1453335 L214.97098,3.93217406 Z M276.162942,54.0384798 C276.162942,46.8208405 270.997407,41.894564 264.896308,41.894564 C258.657176,41.894564 253.491641,46.8208405 253.491641,54.0384798 C253.491641,61.3174674 258.657176,66.1793281 264.896308,66.1793281 C270.997407,66.1823955 276.162942,61.3174674 276.162942,54.0384798 Z M376.071879,17.9502835 C372.841886,17.9502835 370.210039,20.5821298 370.210039,23.8121231 C370.210039,27.0421163 372.841886,29.6739627 376.071879,29.6739627 C379.301872,29.6739627 381.933718,27.0421163 381.933718,23.8121231 C381.933718,20.5821298 379.301872,17.9502835 376.071879,17.9502835 Z M376.071879,28.5390173 C373.461504,28.5390173 371.344985,26.4255649 371.344985,23.8121231 C371.344985,21.2017487 373.458437,19.0882963 376.071879,19.0882963 C378.682253,19.0882963 380.798773,21.2017487 380.798773,23.8121231 C380.798773,26.4255649 378.685321,28.5390173 376.071879,28.5390173 Z M376.412362,20.3029946 C377.768162,20.3029946 378.743602,21.2999061 378.743602,22.6771777 C378.743602,23.7323702 378.166927,24.5513713 377.308049,24.8887875 L378.645444,27.0819928 L377.369398,27.0819928 L376.13016,25.0482933 L375.035091,25.0482933 L375.035091,27.0819928 L373.91855,27.0819928 L373.91855,20.3029946 L376.412362,20.3029946 Z M376.351014,21.2999061 L375.035091,21.2999061 L375.035091,24.0513818 L376.351014,24.0513818 C377.090262,24.0513818 377.627061,23.4716395 377.627061,22.6771777 C377.627061,21.8796485 377.090262,21.2999061 376.351014,21.2999061 Z M167.898353,5.26956918 C172.781686,5.26956918 176.83068,9.21733872 176.83068,14.0822668 C176.83068,18.947195 172.781686,22.8949645 167.898353,22.8949645 C163.011953,22.8949645 158.966026,18.947195 158.966026,14.0822668 C158.962959,9.21733872 163.011953,5.26956918 167.898353,5.26956918 Z" id="Shape" fill-color-id="0" stroke-color-id="-1" recolor-fill="true" recolor-stroke="true" fill="#1277E1FF"/>
            <path d="M19.4013154,69.9530364 C19.1026126,70.1131657 18.8593392,70.0731334 18.6191453,69.8329394 L11.9337461,61.8665057 C11.7551404,61.6447882 11.7335845,61.5246912 11.9737785,61.1859561 C17.1410285,53.6198457 27.6880077,41.8287849 34.4134391,36.8462995 C34.5335361,36.7662348 34.4935038,36.6646143 34.3518509,36.7262025 C27.3461932,39.0080453 7.43164872,47.5749639 0.0657,51.7383262 L0.0657,78.7971019 L71.7451266,78.7971019 L71.7451266,52.7391345 C61.9772381,54.3989365 32.7136048,63.107508 19.4013154,69.9530364 Z M48.5448516,21.2737231 C48.9051426,21.1936584 49.0652719,21.3137554 49.28391,21.5539494 C50.5249123,22.9335251 54.4911923,27.777437 55.5689858,29.0985039 C55.7691475,29.3386979 55.630574,29.6004477 55.4704447,29.7390212 C47.4639787,35.9840647 38.5552456,44.8312096 33.5912367,51.1563177 C33.4926956,51.2979706 33.5727602,51.2979706 33.6528249,51.2764147 C42.2998082,47.553408 62.6146759,41.6070673 71.763603,39.9472653 L71.763603,28.3594455 L35.9562236,0.03503233 L0.08725587,28.3378896 L0.08725587,41.0065824 C11.1946877,34.4043273 36.8954436,24.1745273 48.5448516,21.2737231 Z" id="Shape" fill-color-id="0" stroke-color-id="-1" recolor-fill="true" recolor-stroke="true" fill="#1277E1FF"/>
        </g>
    </g>
</svg>